<svg xmlns="http://www.w3.org/2000/svg" viewBox="0 0 512 512">
  <path fill="currentColor" d="M416 64h-48V48c0-8.8-7.2-16-16-16s-16 7.2-16 16v16h-48V48c0-8.8-7.2-16-16-16s-16 7.2-16 16v16h-48V48c0-8.8-7.2-16-16-16S136 39.2 136 48v16H88C39.4 64 0 103.4 0 152v208c0 61.9 50.1 112 112 112h192c61.9 0 112-50.1 112-112V272h16c52.9 0 96-43.1 96-96s-43.1-112-112-112zM368 360c0 44.1-35.9 80-80 80H112c-44.1 0-80-35.9-80-80V152c0-26.5 21.5-48 48-48h288v256zm32-128V136h16c35.3 0 64 28.7 64 64s-28.7 64-64 64h-16z"/>
</svg>
