<!-- icons/caphe.svg -->
<svg xmlns="http://www.w3.org/2000/svg" viewBox="0 0 512 512" fill="currentColor" aria-hidden="true">
  <!-- Mug hot - solid style -->
  <path d="M448 96h-32V72c0-13.255-10.745-24-24-24h-24c-13.255 0-24 10.745-24 24v24H170.667V72c0-13.255-10.745-24-24-24h-24c-13.255 0-24 10.745-24 24v24H64C28.656 96 0 124.656 0 160v144c0 70.692 57.308 128 128 128h192c70.692 0 128-57.308 128-128V160c0-17.673-14.327-32-32-32zM448 208h-80v48c0 53.023-42.977 96-96 96H128c-53.023 0-96-42.977-96-96V160c0-17.673 14.327-32 32-32h320c35.346 0 64 28.654 64 64v16c0 8.836-7.164 16-16 16z"/>
  <!-- Steam -->
  <path d="M128 40c0 13.255-10.745 24-24 24s-24-10.745-24-24 10.745-24 24-24 24 10.745 24 24zm80 0c0 20.913-17.087 38-38 38-6.627 0-12-5.373-12-12 0-13.255 10.745-24 24-24 13.255 0 24-10.745 24-24 0-6.627 5.373-12 12-12 20.913 0 38 17.087 38 38z" opacity="0.95"/>
</svg>
